<?xml version="1.0" encoding="UTF-8" standalone="no"?>
<svg
   xmlns:dc="http://purl.org/dc/elements/1.1/"
   xmlns:cc="http://creativecommons.org/ns#"
   xmlns:rdf="http://www.w3.org/1999/02/22-rdf-syntax-ns#"
   xmlns:svg="http://www.w3.org/2000/svg"
   xmlns="http://www.w3.org/2000/svg"
   xmlns:sodipodi="http://sodipodi.sourceforge.net/DTD/sodipodi-0.dtd"
   xmlns:inkscape="http://www.inkscape.org/namespaces/inkscape"
   width="210mm"
   height="297mm"
   viewBox="0 0 210 297"
   version="1.1"
   id="svg8"
   inkscape:version="1.0.2-2 (e86c870879, 2021-01-15)"
   sodipodi:docname="dindinIcon.svg">
  <defs
     id="defs2" />
  <sodipodi:namedview
     id="base"
     pagecolor="#ffffff"
     bordercolor="#666666"
     borderopacity="1.0"
     inkscape:pageopacity="0.0"
     inkscape:pageshadow="2"
     inkscape:zoom="0.35"
     inkscape:cx="182.77684"
     inkscape:cy="731.27889"
     inkscape:document-units="mm"
     inkscape:current-layer="layer1"
     inkscape:document-rotation="0"
     showgrid="false"
     inkscape:window-width="1512"
     inkscape:window-height="1041"
     inkscape:window-x="156"
     inkscape:window-y="0"
     inkscape:window-maximized="0" />
  <metadata
     id="metadata5">
    <rdf:RDF>
      <cc:Work
         rdf:about="">
        <dc:format>image/svg+xml</dc:format>
        <dc:type
           rdf:resource="http://purl.org/dc/dcmitype/StillImage" />
        <dc:title></dc:title>
      </cc:Work>
    </rdf:RDF>
  </metadata>
  <g
     inkscape:label="Layer 1"
     inkscape:groupmode="layer"
     id="layer1">
    <path
       style="fill:#ffffff;stroke-width:1.68066"
       d="M 77.659238,235.5565 C 44.036895,226.72237 16.77131,201.65992 5.2564217,169.00415 2.8892772,162.29098 2.0600303,155.07931 2.0412073,141.04267 2.0087539,117.60031 5.9212601,104.30843 18.116306,86.416436 47.894619,42.727189 109.54053,29.455324 157.33607,56.443475 c 13.89204,7.84421 29.53756,23.480039 36.87325,36.850192 11.86701,21.629183 11.79418,21.131543 12.58,85.990403 l 0.71242,58.80131 -60.6686,-0.14732 c -45.40192,-0.11004 -62.808835,-0.70944 -69.173902,-2.3818 z m 61.413412,-24.17785 c 36.03297,-16.44048 54.11621,-52.52312 44.96119,-89.71403 C 169.5145,62.681519 90.515293,41.66037 45.869598,84.899909 28.082263,102.12705 20.69894,121.26825 22.188677,146.29266 c 0.750579,12.60756 1.755724,16.39511 7.099162,26.75013 10.835575,20.99839 27.650674,35.5562 48.740004,42.19702 7.710127,2.42787 13.964074,3.01091 28.744607,2.68008 17.81265,-0.39848 19.65567,-0.77203 32.3002,-6.54124 z M 95.609878,185.63878 c 0,-6.3651 -0.03246,-6.39742 -8.157269,-7.5639 -6.661173,-0.9566 -12.809452,-2.90729 -15.450047,-4.90186 -0.233015,-0.17592 0.76408,-4.15017 2.215651,-8.83159 l 2.639168,-8.51174 5.276194,2.6132 c 2.901847,1.43726 9.246338,3.00524 14.098822,3.48443 7.149913,0.70605 9.625063,0.24865 13.054273,-2.4119 6.53817,-5.07282 2.99428,-10.60771 -9.700682,-15.15068 -20.249628,-7.24649 -26.301262,-13.3934 -26.301262,-26.71514 0,-8.67653 7.255782,-18.102907 16.362115,-21.256741 5.381084,-1.863595 5.963037,-2.675046 5.963037,-8.313941 v -6.248734 h 8.586562 8.58663 v 5.756765 c 0,4.230406 0.74402,5.756751 2.80611,5.756751 1.54328,0 5.8534,0.874483 9.57787,1.943229 6.57252,1.886031 6.74004,2.115986 5.689,7.812761 -2.1991,11.91952 -1.96336,11.70131 -9.7846,9.05835 -9.21149,-3.11274 -19.3869,-3.01514 -22.762954,0.2182 -1.484215,1.4216 -2.698618,3.15725 -2.698618,3.85706 0,2.48717 6.174182,6.44977 17.996852,11.55038 14.65844,6.32402 19.28551,10.31111 21.62572,18.635 3.45563,12.2912 -3.01828,23.64819 -16.81134,29.49185 -6.87315,2.91195 -7.35535,3.5425 -7.35535,9.61842 v 6.50217 h -7.72798 -7.727902 z"
       id="path853" />
  </g>
</svg>
